<svg xmlns="http://www.w3.org/2000/svg" xmlns:xlink="http://www.w3.org/1999/xlink" viewBox="0 0 1920 1080">
  <defs>
    <style>
      .cls-1 {
        clip-path: url(#clip-Web_1920_1);
      }
    </style>
    <clipPath id="clip-Web_1920_1">
      <rect width="1920" height="1080"/>
    </clipPath>
  </defs>
  <g id="Web_1920_1" data-name="Web 1920 – 1" class="cls-1">
    <g id="coordonnes" transform="translate(910 481)">
      <g id="Groupe_1" data-name="Groupe 1" transform="translate(0 -952.362)">
        <path id="Tracé_1" data-name="Tracé 1" d="M12,18a5.011,5.011,0,0,0-5,5V77a5.011,5.011,0,0,0,5,5h9a1,1,0,0,0,1-1V77a.977.977,0,0,1,1-1H37a.977.977,0,0,1,1,1v4a1,1,0,0,0,1,1H61a1,1,0,0,0,1-1V77a.977.977,0,0,1,1-1H77a.977.977,0,0,1,1,1v4a1,1,0,0,0,1,1h9a5.011,5.011,0,0,0,5-5V23a5.011,5.011,0,0,0-5-5Zm0,2H88a2.972,2.972,0,0,1,3,3V77a2.972,2.972,0,0,1-3,3H80V77a3.016,3.016,0,0,0-3-3H63a3.016,3.016,0,0,0-3,3v3H40V77a3.016,3.016,0,0,0-3-3H23a3.016,3.016,0,0,0-3,3v3H12a2.972,2.972,0,0,1-3-3V23A2.972,2.972,0,0,1,12,20Zm22,9a9.764,9.764,0,0,0-7.187,2.781C25,33.659,24,36.444,24,40a13.657,13.657,0,0,0,2.656,7.688C27.941,49.634,29,51.136,29,52c0,.783-.51,1.4-1.687,2.094A29.353,29.353,0,0,1,22.656,56a27.989,27.989,0,0,0-4.969,2.125C16.238,58.993,15,60.266,15,62v2a1,1,0,0,0,1,1H52.031a1,1,0,0,0,1-1V62c0-1.734-1.238-3.007-2.687-3.875A27.989,27.989,0,0,0,45.375,56a29.353,29.353,0,0,1-4.656-1.906c-1.177-.693-1.687-1.31-1.687-2.094,0-.864,1.059-2.366,2.344-4.312A13.657,13.657,0,0,0,44.031,40c0-3.557-1.025-6.374-2.844-8.25A9.756,9.756,0,0,0,34,29Zm0,2a7.7,7.7,0,0,1,5.75,2.156c1.4,1.44,2.281,3.665,2.281,6.844a11.64,11.64,0,0,1-2.344,6.594C38.472,48.436,37.031,49.98,37.031,52c0,1.717,1.24,2.96,2.688,3.813a29.1,29.1,0,0,0,4.969,2.063,28.019,28.019,0,0,1,4.656,1.969c1.176.7,1.688,1.335,1.688,2.156v1H17V62c0-.821.512-1.452,1.688-2.156a28.019,28.019,0,0,1,4.656-1.969,29.1,29.1,0,0,0,4.969-2.062C29.76,54.96,31,53.717,31,52c0-2.02-1.441-3.564-2.656-5.406A11.64,11.64,0,0,1,26,40c0-3.181.894-5.405,2.281-6.844A7.618,7.618,0,0,1,34,31Zm23.813,2A1,1,0,1,0,58,35H84a1,1,0,1,0,0-2H58A1,1,0,0,0,57.813,33Zm0,13A1,1,0,1,0,58,48H84a1,1,0,1,0,0-2H58A1,1,0,0,0,57.813,46Zm0,13A1,1,0,1,0,58,61H84a1,1,0,1,0,0-2H58A1,1,0,0,0,57.813,59Z" transform="translate(0 952.362)"/>
      </g>
    </g>
  </g>
</svg>
