<svg xmlns="http://www.w3.org/2000/svg" xmlns:xlink="http://www.w3.org/1999/xlink" viewBox="0 0 1920 1080">
  <defs>
    <style>
      .cls-1 {
        clip-path: url(#clip-Web_1920_1);
      }
    </style>
    <clipPath id="clip-Web_1920_1">
      <rect width="1920" height="1080"/>
    </clipPath>
  </defs>
  <g id="Web_1920_1" data-name="Web 1920 – 1" class="cls-1">
    <g id="ecole" transform="translate(945 485.323)">
      <g id="Groupe_1" data-name="Groupe 1">
        <path id="Tracé_1" data-name="Tracé 1" d="M96.349,27.217a4.981,4.981,0,0,0-4.976-4.976H65.445V15.549a6.88,6.88,0,0,0-6.872-6.872H41.427a6.88,6.88,0,0,0-6.872,6.872v6.692H8.629a4.981,4.981,0,0,0-4.978,4.971L3.6,50.882a2,2,0,0,0,1.127,1.8c1.056.512,2.143.985,3.235,1.454V86.348a4.982,4.982,0,0,0,4.976,4.976h74.12a4.981,4.981,0,0,0,4.976-4.976V53.658c1.119-.517,2.221-1.052,3.295-1.618A2,2,0,0,0,96.4,50.267ZM38.555,15.549a2.875,2.875,0,0,1,2.872-2.872H58.573a2.91,2.91,0,0,1,2.872,2.872v6.692H38.555V15.549Zm49.481,70.8a1,1,0,0,1-.976.976H12.94a.989.989,0,0,1-.976-.976V55.727A100.194,100.194,0,0,0,41,61.43v2.775a3.653,3.653,0,0,0,3.649,3.649H55.348a3.653,3.653,0,0,0,3.647-3.649V61.4a95.217,95.217,0,0,0,29.04-6.039V86.348ZM45,63.854V57.218H55v6.636ZM59,57.378V56.87a3.653,3.653,0,0,0-3.647-3.651h-10.7A3.654,3.654,0,0,0,41,56.87v.551c-12.528-.718-23.759-3.329-33.4-7.8l.047-22.405a.99.99,0,0,1,.978-.976H91.374a.989.989,0,0,1,.976.979L92.4,49.051C82.987,53.791,71.754,56.576,59,57.378Z"/>
      </g>
    </g>
  </g>
</svg>
