<svg xmlns="http://www.w3.org/2000/svg" xmlns:xlink="http://www.w3.org/1999/xlink" viewBox="0 0 1920 1080">
  <defs>
    <style>
      .cls-1 {
        clip-path: url(#clip-Web_1920_1);
      }
    </style>
    <clipPath id="clip-Web_1920_1">
      <rect width="1920" height="1080"/>
    </clipPath>
  </defs>
  <g id="Web_1920_1" data-name="Web 1920 – 1" class="cls-1">
    <g id="langue" transform="translate(958 442.5)">
      <g id="Layer_2" data-name="Layer 2">
        <path id="Tracé_1" data-name="Tracé 1" d="M87.956,73.232A44.292,44.292,0,0,0,94.5,50h0a44.293,44.293,0,0,0-6.544-23.232l-.024-.038a44.5,44.5,0,0,0-75.863,0l-.025.038a44.513,44.513,0,0,0,0,46.464l.025.039a44.5,44.5,0,0,0,75.863,0ZM55.688,86.873a10.814,10.814,0,0,1-2.889,2,6.521,6.521,0,0,1-5.6,0,13.621,13.621,0,0,1-5.048-4.442,39.775,39.775,0,0,1-5.748-12.471Q43.2,71.538,50,71.53t13.6.426a50.2,50.2,0,0,1-2.438,6.712,25.8,25.8,0,0,1-5.469,8.205ZM10.587,52.5H28.536a88.3,88.3,0,0,0,1.623,14.914q-7.36.648-14.682,1.779A39.231,39.231,0,0,1,10.587,52.5Zm4.89-21.693q7.319,1.134,14.687,1.779A88.151,88.151,0,0,0,28.538,47.5H10.587a39.231,39.231,0,0,1,4.89-16.693Zm28.835-17.68a10.811,10.811,0,0,1,2.889-2,6.521,6.521,0,0,1,5.6,0,13.621,13.621,0,0,1,5.048,4.442,39.775,39.775,0,0,1,5.748,12.471Q56.8,28.462,50,28.47t-13.6-.426a50.19,50.19,0,0,1,2.438-6.712,25.8,25.8,0,0,1,5.469-8.205ZM89.413,47.5H71.464a88.312,88.312,0,0,0-1.623-14.914q7.36-.648,14.682-1.779A39.231,39.231,0,0,1,89.413,47.5ZM35.188,67.025A82.7,82.7,0,0,1,33.537,52.5H66.463a82.679,82.679,0,0,1-1.647,14.526q-7.4-.486-14.816-.5T35.188,67.025ZM64.812,32.974A82.7,82.7,0,0,1,66.463,47.5H33.537a82.679,82.679,0,0,1,1.647-14.526q7.4.486,14.816.5t14.812-.5ZM71.462,52.5H89.413a39.231,39.231,0,0,1-4.89,16.693Q77.2,68.059,69.836,67.414A88.145,88.145,0,0,0,71.462,52.5ZM81.525,26.2q-6.4.923-12.837,1.462a57.018,57.018,0,0,0-2.975-8.4,35.48,35.48,0,0,0-4.14-7.045A39.492,39.492,0,0,1,81.525,26.2ZM22.069,22.069a39.487,39.487,0,0,1,16.356-9.843c-.094.121-.19.237-.282.361a45.643,45.643,0,0,0-6.822,15.08q-6.438-.545-12.846-1.463a39.826,39.826,0,0,1,3.595-4.136ZM18.475,73.8q6.4-.923,12.837-1.462a57.019,57.019,0,0,0,2.975,8.4,35.484,35.484,0,0,0,4.14,7.045A39.492,39.492,0,0,1,18.475,73.8Zm59.456,4.136a39.486,39.486,0,0,1-16.356,9.843c.094-.121.19-.237.282-.361a45.644,45.644,0,0,0,6.822-15.08q6.438.545,12.846,1.463a39.825,39.825,0,0,1-3.595,4.136Z"/>
      </g>
    </g>
  </g>
</svg>
