<svg xmlns="http://www.w3.org/2000/svg" xmlns:xlink="http://www.w3.org/1999/xlink" viewBox="0 0 1920 1080">
  <defs>
    <style>
      .cls-1 {
        clip-path: url(#clip-Web_1920_1);
      }
    </style>
    <clipPath id="clip-Web_1920_1">
      <rect width="1920" height="1080"/>
    </clipPath>
  </defs>
  <g id="Web_1920_1" data-name="Web 1920 – 1" class="cls-1">
    <g id="stage" transform="translate(994 521)">
      <g id="Groupe_1" data-name="Groupe 1" transform="translate(0 -952.362)">
        <path id="Tracé_1" data-name="Tracé 1" d="M42.988,961.362c-4.028.942-4.486,4.712-6.593,7.531-2.512.255-5.459.146-7.125,1.75-1.373,2.331-1.012,5.287-1.25,7.719-2.435,2.445-6.941,4.727-7.031,8,0,3.271,1.887,6.014,2.875,8.406-1.1,2.131-2.837,4.34-2.875,6.594.054,2.886,1.822,5.074,2.844,7.406-1.387,2.413-3.793,4.957-3.844,7.594a8.574,8.574,0,0,0,2.5,5.719,10.957,10.957,0,0,0-4.375,6.094c-1.006,4.652-2.058,9.315-3.094,13.969a1.046,1.046,0,0,0,.969,1.219h68a1.046,1.046,0,0,0,1-1.187c-.777-4.656-1.577-9.313-2.344-13.969a9.923,9.923,0,0,0-5.187-6.75,11.994,11.994,0,0,0-1.281-9.531c1.726-2.247,3.766-4.9,3.812-7.562-.279-3.1-1.977-5.238-3.75-7.531,1.019-1.365,2.75-3.384,2.75-6.469-.688-3.959-4.379-5.265-6.812-7.812,1.02-3.309,3.314-7.286.5-9.875-2.325-1.934-5.443-2.526-7.937-4.062-1.156-2.215-1.814-4.4-3.219-6.219-3.487-2.432-8.761.445-11.437,2.688-2.487-1.937-4.676-3.664-7.093-3.719Zm3.594,18.125c1.638,2.606,4.167,2.807,6.812,2.813,2.235,5.608,7.127,7.444,9.437,9.438a28.69,28.69,0,0,1-4.781,10.531,26.846,26.846,0,0,1-8.062,7.875,26.846,26.846,0,0,1-8.062-7.875,28.773,28.773,0,0,1-4.75-10.437c2.689-1.349,2.648-3.99,3.062-6.438a6.821,6.821,0,0,1,1.562-3.625A8.637,8.637,0,0,1,46.581,979.487Zm-3.031,28.031a21.87,21.87,0,0,0,6,4.719,1.016,1.016,0,0,0,.875,0,21.87,21.87,0,0,0,6-4.719c1.037,2.613.346,6.6,2.125,8.719-3.308,6.5-13.776,6.494-17.093,0,1.426-2.369,1.535-5.9,2.094-8.719Zm16.843,9.438.562.219c-.248,5.841-3.111,11.8-6.812,17.5l-2.031-6.062,1.594-1.562a1.028,1.028,0,0,0,.187-1.156l-1.5-3.031A10.906,10.906,0,0,0,60.393,1016.956Zm-20.811.031a10.922,10.922,0,0,0,8,5.875l-1.5,3.031a1.028,1.028,0,0,0,.187,1.156l1.594,1.563-2.031,6.063c-3.695-5.694-6.555-11.638-6.812-17.469Zm-3.531,1.438-3.031,16.75a1.039,1.039,0,0,0,.812,1.156,31.948,31.948,0,0,1,13.093,5.031H17.239l2.812-12.625a8.764,8.764,0,0,1,4.312-5.469Q30.2,1020.835,36.051,1018.424Zm28.4.125c4.049,1.577,8.114,3.131,12.155,4.719a7.792,7.792,0,0,1,4.062,5.313q1.049,6.391,2.125,12.781H53.049a31.949,31.949,0,0,1,13.093-5.031,1.039,1.039,0,0,0,.844-1.125Zm-1.812,1.656,2.219,14.375a34.882,34.882,0,0,0-10.781,3.844c3.989-5.718,7.5-11.863,8.562-18.219ZM37.519,1021.3c1.261,5.969,4.614,11.734,8.374,17.125a34.885,34.885,0,0,0-10.781-3.844Zm12.093,2.063h.75l1.406,2.781-1.5,1.5a1.007,1.007,0,0,0-.281.531,1.007,1.007,0,0,0-.281-.531l-1.5-1.5Zm.375,5.125c.909,2.732,1.835,5.5,2.75,8.25-.9,1.308-1.81,2.6-2.75,3.875-.94-1.272-1.852-2.567-2.75-3.875Z"/>
      </g>
    </g>
  </g>
</svg>
